<svg xmlns="http://www.w3.org/2000/svg" width="400" height="300" viewBox="0 0 400 300">
  <rect fill="#0f172a" width="400" height="300" rx="12"/>
  <g fill="none" stroke="#3b82f6" stroke-width="3" stroke-linecap="round" stroke-linejoin="round" opacity="0.6" transform="translate(130,70)">
    <path d="M9.663 17h4.673M12 3v1m6.364 1.636l-.707.707M21 12h-1M4 12H3m3.343-5.657l-.707-.707m2.828 9.9a5 5 0 117.072 0l-.548.547A3.374 3.374 0 0014 18.469V19a2 2 0 11-4 0v-.531c0-.895-.356-1.754-.988-2.386l-.548-.547z" transform="scale(1.5)"/>
  </g>
  <text x="200" y="210" text-anchor="middle" fill="#3b82f6" font-family="system-ui,sans-serif" font-size="14" font-weight="700" letter-spacing="2" opacity="0.8">LIGHTS &amp; LIGHTING</text>
  <text x="200" y="240" text-anchor="middle" fill="#64748b" font-family="system-ui,sans-serif" font-size="11" opacity="0.6">Headlights · Tail Lights · LEDs</text>
</svg>